<svg xmlns="http://www.w3.org/2000/svg" version="1.1" xmlns:xlink="http://www.w3.org/1999/xlink" xmlns:svgjs="http://svgjs.dev/svgjs" width="2000" height="1500" viewBox="0 0 2000 1500"><rect width="2000" height="1500" fill="#ffffff"></rect><g transform="matrix(0.75,0,0,0.75,249.090909090909,640.0855512970262)"><svg viewBox="0 0 396 58" data-background-color="#ffffff" preserveAspectRatio="xMidYMid meet" height="292" width="2000" xmlns="http://www.w3.org/2000/svg" xmlns:xlink="http://www.w3.org/1999/xlink"><g id="tight-bounds" transform="matrix(1,0,0,1,0.2400000000000091,0.10976267019398733)"><svg viewBox="0 0 395.52 57.780474659612004" height="57.780474659612004" width="395.52"><g><svg viewBox="0 0 503.21174075617324 73.51287731386861" height="57.780474659612004" width="395.52"><g transform="matrix(1,0,0,1,0,10.159883912408759)"><svg viewBox="0 0 395.52 53.193109489051096" height="53.193109489051096" width="395.52"><g id="textblocktransform"><svg viewBox="0 0 395.52 53.193109489051096" height="53.193109489051096" width="395.52" id="textblock"><g><svg viewBox="0 0 395.52 53.193109489051096" height="53.193109489051096" width="395.52"><g transform="matrix(1,0,0,1,0,0)"><svg width="395.52" viewBox="1.15 -36.25 277.83000000000004 36.85" height="53.193109489051096" data-palette-color="#096a2e"><g class="wordmark-text-0" data-fill-palette-color="primary" id="text-0"><path d="M34.75-25.6L23.5-25.6 23.5 0 12.45 0 12.45-25.6 1.15-25.6 1.15-34.4 34.75-34.4 34.75-25.6ZM52.75-27Q60-27 63.82-23.6 67.65-20.2 67.65-13.2L67.65-13.2 67.65-11.5 47.85-11.5Q47.85-8.65 49.12-7.2 50.4-5.75 53.15-5.75L53.15-5.75Q55.65-5.75 56.82-6.8 58-7.85 58-9.6L58-9.6 67.65-9.6Q67.65-4.8 64-2.1 60.35 0.6 53.35 0.6L53.35 0.6Q46 0.6 41.95-2.83 37.9-6.25 37.9-13.2L37.9-13.2Q37.9-20 41.85-23.5 45.8-27 52.75-27L52.75-27ZM53.15-20.65Q48.45-20.65 47.9-16.2L47.9-16.2 57.6-16.2Q57.6-18.25 56.42-19.45 55.25-20.65 53.15-20.65L53.15-20.65ZM85.5-27Q91.55-27 95.35-24.98 99.15-22.95 99.15-18.4L99.15-18.4 99.15-8.1Q99.15-7.25 99.55-6.7 99.95-6.15 100.75-6.15L100.75-6.15 102.55-6.15 102.55-0.4Q102.4-0.3 101.77-0.08 101.15 0.15 100 0.38 98.85 0.6 97.35 0.6L97.35 0.6Q94.45 0.6 92.57-0.28 90.7-1.15 90-2.7L90-2.7Q88.1-1.2 85.75-0.3 83.4 0.6 80.25 0.6L80.25 0.6Q70.95 0.6 70.95-6.8L70.95-6.8Q70.95-10.65 73.02-12.68 75.1-14.7 79-15.45 82.9-16.2 89.2-16.2L89.2-16.2 89.2-17.5Q89.2-19.05 88.12-19.85 87.05-20.65 85.35-20.65L85.35-20.65Q83.8-20.65 82.67-20.1 81.55-19.55 81.55-18.35L81.55-18.35 81.55-18.15 71.75-18.15Q71.7-18.4 71.7-18.85L71.7-18.85Q71.7-22.6 75.27-24.8 78.85-27 85.5-27L85.5-27ZM89.2-11.5Q84.95-11.5 82.92-10.58 80.9-9.65 80.9-8.1L80.9-8.1Q80.9-5.6 84.3-5.6L84.3-5.6Q86.25-5.6 87.72-6.65 89.2-7.7 89.2-9.25L89.2-9.25 89.2-11.5ZM140.84-27Q145.34-27 147.59-24.43 149.84-21.85 149.84-17.1L149.84-17.1 149.84 0 139.89 0 139.89-15.9Q139.89-17.6 139.07-18.63 138.24-19.65 136.74-19.65L136.74-19.65Q134.99-19.65 133.89-18.45 132.79-17.25 132.79-15.5L132.79-15.5 132.79 0 122.84 0 122.84-15.9Q122.84-17.6 122.02-18.63 121.19-19.65 119.69-19.65L119.69-19.65Q117.94-19.65 116.84-18.45 115.74-17.25 115.74-15.5L115.74-15.5 115.74 0 105.79 0 105.79-26.4 113.94-26.4 114.59-22.45Q116.09-24.55 118.57-25.78 121.04-27 123.79-27L123.79-27Q129.74-27 131.79-22.45L131.79-22.45Q133.34-24.55 135.77-25.78 138.19-27 140.84-27L140.84-27ZM172.89-35Q180.54-35 184.99-31.18 189.44-27.35 189.44-20.25L189.44-20.25 178.89-20.25Q178.89-23.25 177.32-25 175.74-26.75 172.84-26.75L172.84-26.75Q169.49-26.75 167.92-24.65 166.34-22.55 166.34-18.8L166.34-18.8 166.34-15.6Q166.34-11.9 167.92-9.78 169.49-7.65 172.74-7.65L172.74-7.65Q175.94-7.65 177.59-9.3 179.24-10.95 179.24-13.95L179.24-13.95 189.44-13.95Q189.44-6.9 185.12-3.15 180.79 0.6 172.89 0.6L172.89 0.6Q164.09 0.6 159.57-3.9 155.04-8.4 155.04-17.2L155.04-17.2Q155.04-26 159.57-30.5 164.09-35 172.89-35L172.89-35ZM204.64-23.65Q206.24-25.25 208.39-26.13 210.54-27 212.89-27L212.89-27Q217.49-27 219.79-24.45 222.09-21.9 222.09-17.1L222.09-17.1 222.09 0 212.14 0 212.14-15.9Q212.14-17.6 211.26-18.63 210.39-19.65 208.79-19.65L208.79-19.65Q206.94-19.65 205.79-18.45 204.64-17.25 204.64-15.5L204.64-15.5 204.64 0 194.69 0 194.69-36.25 204.64-36.25 204.64-23.65ZM241.09-27Q247.14-27 250.94-24.98 254.74-22.95 254.74-18.4L254.74-18.4 254.74-8.1Q254.74-7.25 255.14-6.7 255.54-6.15 256.34-6.15L256.34-6.15 258.14-6.15 258.14-0.4Q257.99-0.3 257.36-0.08 256.74 0.15 255.59 0.38 254.44 0.6 252.94 0.6L252.94 0.6Q250.04 0.6 248.16-0.28 246.29-1.15 245.59-2.7L245.59-2.7Q243.69-1.2 241.34-0.3 238.99 0.6 235.84 0.6L235.84 0.6Q226.54 0.6 226.54-6.8L226.54-6.8Q226.54-10.65 228.61-12.68 230.69-14.7 234.59-15.45 238.49-16.2 244.79-16.2L244.79-16.2 244.79-17.5Q244.79-19.05 243.71-19.85 242.64-20.65 240.94-20.65L240.94-20.65Q239.39-20.65 238.26-20.1 237.14-19.55 237.14-18.35L237.14-18.35 237.14-18.15 227.34-18.15Q227.29-18.4 227.29-18.85L227.29-18.85Q227.29-22.6 230.86-24.8 234.44-27 241.09-27L241.09-27ZM244.79-11.5Q240.54-11.5 238.51-10.58 236.49-9.65 236.49-8.1L236.49-8.1Q236.49-5.6 239.89-5.6L239.89-5.6Q241.84-5.6 243.31-6.65 244.79-7.7 244.79-9.25L244.79-9.25 244.79-11.5ZM273.38-26.4L278.98-26.4 278.98-19.65 273.38-19.65 273.38-9.6Q273.38-7.8 273.98-6.98 274.58-6.15 276.18-6.15L276.18-6.15 278.98-6.15 278.98-0.3Q277.78 0.1 275.88 0.35 273.98 0.6 272.58 0.6L272.58 0.6Q268.18 0.6 265.81-1 263.43-2.6 263.43-6.45L263.43-6.45 263.43-19.65 259.73-19.65 259.73-26.4 263.83-26.4 265.98-34.4 273.38-34.4 273.38-26.4Z" fill="#000000" data-fill-palette-color="primary"></path></g></svg></g></svg></g></svg></g></svg></g><g transform="matrix(1,0,0,1,408.0776165157372,0)"><svg viewBox="0 0 95.13412424043602 73.51287731386861" height="73.51287731386861" width="95.13412424043602"><g><svg xmlns="http://www.w3.org/2000/svg" xmlns:xlink="http://www.w3.org/1999/xlink" version="1.1" x="0" y="0" viewBox="5.443 15.316 89.50100000000002 69.16000000000001" enable-background="new 0 0 100 100" xml:space="preserve" height="73.51287731386861" width="95.13412424043602" class="icon-icon-0" data-fill-palette-color="accent" id="icon-0"><path d="M87.62 33.304v2.902c2.507 0.452 4.423 2.641 4.423 5.28l-0.006 39.309-8.999-9.002H38.143c-2.625 0-4.809-1.893-5.276-4.38h-2.902c0.498 4.091 3.953 7.282 8.178 7.282h43.694l8.403 8.403c0.941 0.941 1.752 1.378 2.557 1.378 1.34 0 2.094-1.168 2.147-2.387V41.486C94.944 37.247 91.731 33.782 87.62 33.304z" fill="#000000" data-fill-palette-color="accent"></path><path d="M76.014 64.512c4.809 0 8.704-3.899 8.704-8.705V24.021c0-4.807-3.896-8.705-8.704-8.705H14.148c-4.807 0-8.705 3.897-8.705 8.705v25.136 6.65 19.982c0 0 0.121 2.697 2.841-0.023l11.256-11.254H76.014z" fill="#000000" data-fill-palette-color="accent"></path></svg></g></svg></g></svg></g><defs></defs></svg><rect width="395.52" height="57.780474659612004" fill="none" stroke="none" visibility="hidden"></rect></g></svg></g></svg>